<?xml version="1.0" standalone="no"?><!DOCTYPE svg PUBLIC "-//W3C//DTD SVG 1.1//EN" "http://www.w3.org/Graphics/SVG/1.1/DTD/svg11.dtd"><svg t="1770715218525" class="icon" viewBox="0 0 1024 1024" version="1.1" xmlns="http://www.w3.org/2000/svg" p-id="6487" xmlns:xlink="http://www.w3.org/1999/xlink" width="200" height="200"><path d="M556.736893 512.149956L1014.402812 54.184126c12.396368-12.396368 12.396368-32.490481 0-44.88685-12.396368-12.396368-32.490481-12.396368-44.88685 0L511.850044 467.263107 54.184126 9.597188C41.787757-2.79918 21.693644-2.79918 9.297276 9.597188c-12.396368 12.396368-12.396368 32.490481 0 44.88685l457.665918 457.665918L9.297276 969.815874c-12.396368 12.396368-12.396368 32.490481 0 44.88685 6.198184 6.198184 14.295812 9.297276 22.39344 9.297276s16.195255-3.099092 22.393439-9.297276L511.850044 557.036806l457.665918 457.665918c6.198184 6.198184 14.295812 9.297276 22.39344 9.297276 8.097628 0 16.195255-3.099092 22.393439-9.297276 12.396368-12.396368 12.396368-32.490481 0-44.88685L556.736893 512.149956z" fill="" p-id="6488"></path></svg>