<?xml version="1.0" standalone="no"?><!DOCTYPE svg PUBLIC "-//W3C//DTD SVG 1.1//EN" "http://www.w3.org/Graphics/SVG/1.1/DTD/svg11.dtd"><svg t="1770715523064" class="icon" viewBox="0 0 1024 1024" version="1.1" xmlns="http://www.w3.org/2000/svg" p-id="13199" xmlns:xlink="http://www.w3.org/1999/xlink" width="200" height="200"><path d="M458.47552 912.2816c-0.49152 3.13856-0.7424 6.36416-0.7424 9.64096 0 34.41664 27.904 62.32064 62.32576 62.32064s62.33088-27.89376 62.33088-62.32064c0-3.2768-0.26112-6.5024-0.74752-9.64096L458.47552 912.2816 458.47552 912.2816z" fill="#262536" p-id="13200"></path><path d="M976.7424 824.56576l-97.41824 0 0-351.488c0-188.93824-145.84832-343.808-331.10016-358.1696l0-38.95808c0-15.55456-12.61056-28.16-28.16-28.16s-28.16 12.60544-28.16 28.16l0 38.95808c-185.25184 14.3616-331.10016 169.23136-331.10016 358.1696l0 351.488L63.38048 824.56576c-11.4432 0-20.71552 9.27744-20.71552 20.72576 0 11.43808 9.27232 20.71552 20.71552 20.71552l97.9456 0 0 0 717.4656 0 0 0 97.95072 0c11.43808 0 20.71552-9.27744 20.71552-20.71552C997.45792 833.83808 988.18048 824.56576 976.7424 824.56576L976.7424 824.56576zM202.22976 473.07776c0-42.92608 8.40192-84.54656 24.96-123.70432 16.00512-37.84192 38.93248-71.83872 68.13184-101.03808 29.19936-29.19936 63.19616-52.1216 101.03808-68.13184 39.15264-16.5632 80.77824-24.96 123.6992-24.96 42.9312 0 84.55168 8.3968 123.70432 24.96 37.8368 16.01024 71.8336 38.92736 101.03296 68.13184 29.20448 29.20448 52.13184 63.19616 68.13696 101.03808 16.55808 39.15776 24.95488 80.77824 24.95488 123.70432l0 351.488L202.22976 824.56576 202.22976 473.07776 202.22976 473.07776z" fill="#262536" p-id="13201"></path></svg>