<?xml version="1.0" standalone="no"?><!DOCTYPE svg PUBLIC "-//W3C//DTD SVG 1.1//EN" "http://www.w3.org/Graphics/SVG/1.1/DTD/svg11.dtd"><svg t="1770712828660" class="icon" viewBox="0 0 1024 1024" version="1.1" xmlns="http://www.w3.org/2000/svg" p-id="2715" xmlns:xlink="http://www.w3.org/1999/xlink" width="200" height="200"><path d="M562.333538 310.665846a43.716923 43.716923 0 0 0-59.746461-1.181538l-301.528615 276.440615a39.424 39.424 0 0 0-1.181539 57.265231l190.070154 190.227692a39.345231 39.345231 0 0 0 57.225846-1.339077l276.558769-301.528615a43.598769 43.598769 0 0 0-1.260307-59.707077l-160.137847-160.177231zM149.385846 663.236923a41.550769 41.550769 0 0 0-58.564923 0 41.550769 41.550769 0 0 0 0 58.525539l222.641231 222.601846a41.432615 41.432615 0 0 0 58.525538-58.564923L149.385846 663.236923zM879.143385 118.350769c-63.015385-1.851077-195.465846 8.073846-281.796923 109.331693-1.457231 2.953846-15.596308 31.586462 6.222769 53.563076l150.173538 151.000616c5.710769 5.435077 24.339692 19.298462 53.326769 2.953846 40.093538-38.4 109.686154-127.606154 108.819693-282.269538-0.787692-28.750769-26.190769-33.831385-36.745846-34.579693z" fill="#231816" p-id="2716"></path></svg>